# xmcd
#
# Track frame offsets:
#	150
#	16296
#	35720
#	47251
#	61799
#	79976
#	91709
#	105759
#	122518
#	133287
#	145943
#	161271
#
# Disc length: 2568 seconds
#
# Revision: 1
# Processed by: cddbd v1.5.2PL0 Copyright (c) Steve Scherf et al.
# Submitted via: audiograbber 1.83.01
#
DISCID=8b0a060c
DTITLE=Amy Winehouse - Back to black
DYEAR=2006
DGENRE=Soul
TTITLE0=Rehab
TTITLE1=You know I'm no good
TTITLE2=Me and Mr Jones
TTITLE3=Just Friends
TTITLE4=Back to Black
TTITLE5=Love is a losing Game
TTITLE6=Tears Dry On Their Own
TTITLE7=Wake Up Alone
TTITLE8=Some Unholy War
TTITLE9=He Can Only Hold Her
TTITLE10=You know I'm no good (ghostface UK vrsion)
TTITLE11=Rehab (Hot Chip Vocal)
EXTD=
EXTT0=
EXTT1=
EXTT2=
EXTT3=
EXTT4=
EXTT5=
EXTT6=
EXTT7=
EXTT8=
EXTT9=
EXTT10=
EXTT11=
PLAYORDER=
